<?xml version="1.0" encoding="UTF-8" standalone="no"?>
<!-- Created with Inkscape (http://www.inkscape.org/) -->

<svg
   xmlns:dc="http://purl.org/dc/elements/1.1/"
   xmlns:cc="http://creativecommons.org/ns#"
   xmlns:rdf="http://www.w3.org/1999/02/22-rdf-syntax-ns#"
   xmlns:svg="http://www.w3.org/2000/svg"
   xmlns="http://www.w3.org/2000/svg"
   xmlns:xlink="http://www.w3.org/1999/xlink"
   xmlns:sodipodi="http://sodipodi.sourceforge.net/DTD/sodipodi-0.dtd"
   xmlns:inkscape="http://www.inkscape.org/namespaces/inkscape"
   width="1062.9921"
   height="708.66138"
   id="svg3147"
   version="1.1"
   inkscape:version="0.48.2 r9819"
   inkscape:export-filename="/Users/justin/Tester.png"
   inkscape:export-xdpi="50.800003"
   inkscape:export-ydpi="50.800003"
   sodipodi:docname="Wall Panel Layout.svg">
  <defs
     id="defs3149">
    <linearGradient
       id="linearGradient5802">
      <stop
         style="stop-color:#c8c8c8;stop-opacity:0.75294119;"
         offset="0"
         id="stop5804" />
      <stop
         id="stop5810"
         offset="0.30000001"
         style="stop-color:#ffffff;stop-opacity:0.75294119;" />
      <stop
         style="stop-color:#ffffff;stop-opacity:0.75294119;"
         offset="0.69999999"
         id="stop5812" />
      <stop
         style="stop-color:#c8c8c8;stop-opacity:0.75294119;"
         offset="1"
         id="stop5806" />
    </linearGradient>
    <marker
       inkscape:stockid="DiamondM"
       orient="auto"
       refY="0.0"
       refX="0.0"
       id="DiamondM"
       style="overflow:visible">
      <path
         id="path4046"
         d="M 0,-7.0710768 L -7.0710894,0 L 0,7.0710589 L 7.0710462,0 L 0,-7.0710768 z "
         style="fill-rule:evenodd;stroke:#000000;stroke-width:1.0pt;marker-start:none"
         transform="scale(0.4)" />
    </marker>
    <marker
       inkscape:stockid="RazorWire"
       id="RazorWire"
       refX="0"
       refY="0"
       orient="auto">
       style=&quot;overflow:visible&quot;&gt;
      <path
   id="path4196"
   transform="scale(0.8,0.8)"
   style="fill:#808080;fill-opacity:1;fill-rule:evenodd;stroke:#000000;stroke-width:0.1pt"
   d="M 0.022727273,-0.74009011 L 0.022727273,0.69740989 L -7.7585227,3.0099099 L 10.678977,3.0099099 L 3.4914773,0.69740989 L 3.4914773,-0.74009011 L 10.741477,-2.8963401 L -7.7272727,-2.8963401 L 0.022727273,-0.74009011 z " />
</marker>
    <marker
       inkscape:stockid="CurveOut"
       orient="auto"
       refY="0.0"
       refX="0.0"
       id="CurveOut"
       style="overflow:visible">
      <path
         id="path4151"
         d="M -5.4129913,-5.0456926 C -2.6529913,-5.0456926 -0.41299131,-2.8056926 -0.41299131,-0.045692580 C -0.41299131,2.7143074 -2.6529913,4.9543074 -5.4129913,4.9543074"
         style="fill:none;fill-rule:evenodd;stroke:#000000;stroke-width:1.0pt;marker-start:none;marker-end:none"
         transform="scale(0.6)" />
    </marker>
    <marker
       inkscape:stockid="DotM"
       orient="auto"
       refY="0.0"
       refX="0.0"
       id="DotM"
       style="overflow:visible">
      <path
         id="path4028"
         d="M -2.5,-1.0 C -2.5,1.7600000 -4.7400000,4.0 -7.5,4.0 C -10.260000,4.0 -12.5,1.7600000 -12.5,-1.0 C -12.5,-3.7600000 -10.260000,-6.0 -7.5,-6.0 C -4.7400000,-6.0 -2.5,-3.7600000 -2.5,-1.0 z "
         style="fill-rule:evenodd;stroke:#000000;stroke-width:1.0pt;marker-start:none;marker-end:none"
         transform="scale(0.4) translate(7.4, 1)" />
    </marker>
    <marker
       inkscape:stockid="DotL"
       orient="auto"
       refY="0.0"
       refX="0.0"
       id="DotL"
       style="overflow:visible">
      <path
         id="path4025"
         d="M -2.5,-1.0 C -2.5,1.7600000 -4.7400000,4.0 -7.5,4.0 C -10.260000,4.0 -12.5,1.7600000 -12.5,-1.0 C -12.5,-3.7600000 -10.260000,-6.0 -7.5,-6.0 C -4.7400000,-6.0 -2.5,-3.7600000 -2.5,-1.0 z "
         style="fill-rule:evenodd;stroke:#000000;stroke-width:1.0pt;marker-start:none;marker-end:none"
         transform="scale(0.8) translate(7.4, 1)" />
    </marker>
    <marker
       inkscape:stockid="Tail"
       orient="auto"
       refY="0.0"
       refX="0.0"
       id="Tail"
       style="overflow:visible">
      <g
         id="g3999"
         transform="scale(-1.2)">
        <path
           id="path4001"
           d="M -3.8048674,-3.9585227 L 0.54352094,0"
           style="fill:none;fill-rule:evenodd;stroke:#000000;stroke-width:0.8;marker-start:none;marker-end:none;stroke-linecap:round" />
        <path
           id="path4003"
           d="M -1.2866832,-3.9585227 L 3.0617053,0"
           style="fill:none;fill-rule:evenodd;stroke:#000000;stroke-width:0.8;marker-start:none;marker-end:none;stroke-linecap:round" />
        <path
           id="path4005"
           d="M 1.3053582,-3.9585227 L 5.6537466,0"
           style="fill:none;fill-rule:evenodd;stroke:#000000;stroke-width:0.8;marker-start:none;marker-end:none;stroke-linecap:round" />
        <path
           id="path4007"
           d="M -3.8048674,4.1775838 L 0.54352094,0.21974226"
           style="fill:none;fill-rule:evenodd;stroke:#000000;stroke-width:0.8;marker-start:none;marker-end:none;stroke-linecap:round" />
        <path
           id="path4009"
           d="M -1.2866832,4.1775838 L 3.0617053,0.21974226"
           style="fill:none;fill-rule:evenodd;stroke:#000000;stroke-width:0.8;marker-start:none;marker-end:none;stroke-linecap:round" />
        <path
           id="path4011"
           d="M 1.3053582,4.1775838 L 5.6537466,0.21974226"
           style="fill:none;fill-rule:evenodd;stroke:#000000;stroke-width:0.8;marker-start:none;marker-end:none;stroke-linecap:round" />
      </g>
    </marker>
    <linearGradient
       inkscape:collect="always"
       xlink:href="#linearGradient5802"
       id="linearGradient5808"
       x1="70.866142"
       y1="336.61411"
       x2="141.73228"
       y2="336.61411"
       gradientUnits="userSpaceOnUse"
       gradientTransform="matrix(1,0,0,0.94117647,0,381.21684)" />
    <linearGradient
       inkscape:collect="always"
       xlink:href="#linearGradient5802"
       id="linearGradient5816"
       gradientUnits="userSpaceOnUse"
       x1="70.866142"
       y1="336.61411"
       x2="141.73228"
       y2="336.61411"
       gradientTransform="matrix(1,0,0,0.94117648,106.29921,381.21684)" />
    <linearGradient
       inkscape:collect="always"
       xlink:href="#linearGradient5802"
       id="linearGradient5820"
       gradientUnits="userSpaceOnUse"
       gradientTransform="matrix(1,0,0,0.94117653,212.59842,381.21683)"
       x1="70.866142"
       y1="336.61411"
       x2="141.73228"
       y2="336.61411" />
    <linearGradient
       inkscape:collect="always"
       xlink:href="#linearGradient5802"
       id="linearGradient5824"
       gradientUnits="userSpaceOnUse"
       gradientTransform="matrix(1,0,0,0.94117648,318.89763,381.21681)"
       x1="70.866142"
       y1="336.61411"
       x2="141.73228"
       y2="336.61411" />
    <linearGradient
       inkscape:collect="always"
       xlink:href="#linearGradient5802"
       id="linearGradient6440"
       gradientUnits="userSpaceOnUse"
       gradientTransform="matrix(1,0,0,0.1176471,1169.2913,693.86154)"
       x1="70.866142"
       y1="336.61411"
       x2="141.73228"
       y2="336.61411" />
  </defs>
  <sodipodi:namedview
     id="base"
     pagecolor="#ffffff"
     bordercolor="#666666"
     borderopacity="1.0"
     inkscape:pageopacity="0.0"
     inkscape:pageshadow="2"
     inkscape:zoom="0.82603066"
     inkscape:cx="767.33787"
     inkscape:cy="-517.2582"
     inkscape:document-units="cm"
     inkscape:current-layer="layer1"
     showgrid="true"
     units="cm"
     inkscape:window-width="1680"
     inkscape:window-height="1002"
     inkscape:window-x="0"
     inkscape:window-y="0"
     inkscape:window-maximized="1"
     showguides="true"
     inkscape:guide-bbox="true">
    <inkscape:grid
       type="xygrid"
       id="grid3155"
       empspacing="10"
       visible="true"
       enabled="true"
       snapvisiblegridlinesonly="true"
       units="cm"
       spacingx="0.1cm"
       spacingy="0.1cm" />
    <sodipodi:guide
       orientation="1,0"
       position="673.22835,-35.433071"
       id="guide6500" />
  </sodipodi:namedview>
  <metadata
     id="metadata3152">
    <rdf:RDF>
      <cc:Work
         rdf:about="">
        <dc:format>image/svg+xml</dc:format>
        <dc:type
           rdf:resource="http://purl.org/dc/dcmitype/StillImage" />
        <dc:title></dc:title>
      </cc:Work>
    </rdf:RDF>
  </metadata>
  <g
     inkscape:label="Layer 1"
     inkscape:groupmode="layer"
     id="layer1"
     transform="translate(0,-343.69947)">
    <rect
       style="fill:#2cff00;fill-opacity:0.50196081000000004;stroke:#00dc00;stroke-width:3.54330708999999988;stroke-linecap:round;stroke-linejoin:round;stroke-miterlimit:4;stroke-opacity:1;stroke-dasharray:none"
       id="rect3157"
       width="1055.9055"
       height="701.57483"
       x="3.5433071"
       y="3.5432668"
       transform="translate(0,343.69947)"
       ry="31.889763"
       rx="31.889797" />
    <text
       xml:space="preserve"
       style="font-size:40px;font-style:normal;font-variant:normal;font-weight:normal;font-stretch:normal;line-height:125%;letter-spacing:0px;word-spacing:0px;fill:#000000;fill-opacity:1;stroke:none;font-family:Source Code Pro;-inkscape-font-specification:Source Code Pro"
       x="662.59845"
       y="680.3136"
       id="text3931"
       sodipodi:linespacing="125%"><tspan
         sodipodi:role="line"
         id="tspan3933"
         x="662.59845"
         y="680.3136">800.00 kPa</tspan></text>
    <text
       sodipodi:linespacing="125%"
       id="text3954"
       y="999.21124"
       x="662.59845"
       style="font-size:40px;font-style:normal;font-variant:normal;font-weight:normal;font-stretch:normal;line-height:125%;letter-spacing:0px;word-spacing:0px;fill:#000000;fill-opacity:1;stroke:none;font-family:Source Code Pro;-inkscape-font-specification:Source Code Pro"
       xml:space="preserve"><tspan
         y="999.21124"
         x="662.59845"
         id="tspan3956"
         sodipodi:role="line">800.00 kPa</tspan></text>
    <rect
       style="fill:url(#linearGradient5808);fill-opacity:1;stroke:none"
       id="rect5778"
       width="70.866142"
       height="566.92914"
       x="70.866142"
       y="414.56558"
       rx="17.716536"
       ry="17.716537" />
    <text
       xml:space="preserve"
       style="font-size:40px;font-style:normal;font-variant:normal;font-weight:normal;font-stretch:normal;line-height:125%;letter-spacing:0px;word-spacing:0px;fill:#000000;fill-opacity:1;stroke:none;font-family:Source Code Pro;-inkscape-font-specification:Source Code Pro"
       x="70.866142"
       y="1016.9278"
       id="text5786"
       sodipodi:linespacing="125%"><tspan
         sodipodi:role="line"
         id="tspan5788"
         x="70.866142"
         y="1016.9278">N2</tspan></text>
    <text
       xml:space="preserve"
       style="font-size:40px;font-style:normal;font-variant:normal;font-weight:normal;font-stretch:normal;line-height:125%;letter-spacing:0px;word-spacing:0px;fill:#000000;fill-opacity:1;stroke:none;font-family:Source Code Pro;-inkscape-font-specification:Source Code Pro"
       x="177.16536"
       y="1016.9278"
       id="text5790"
       sodipodi:linespacing="125%"><tspan
         sodipodi:role="line"
         id="tspan5792"
         x="177.16536"
         y="1016.9278">O2</tspan></text>
    <text
       xml:space="preserve"
       style="font-size:40px;font-style:normal;font-variant:normal;font-weight:normal;font-stretch:normal;line-height:125%;letter-spacing:0px;word-spacing:0px;fill:#000000;fill-opacity:1;stroke:none;font-family:Source Code Pro;-inkscape-font-specification:Source Code Pro"
       x="283.46457"
       y="1016.9278"
       id="text5794"
       sodipodi:linespacing="125%"><tspan
         sodipodi:role="line"
         id="tspan5796"
         x="283.46457"
         y="1016.9278">CO2</tspan></text>
    <text
       xml:space="preserve"
       style="font-size:40px;font-style:normal;font-variant:normal;font-weight:normal;font-stretch:normal;line-height:125%;letter-spacing:0px;word-spacing:0px;fill:#000000;fill-opacity:1;stroke:none;font-family:Source Code Pro;-inkscape-font-specification:Source Code Pro"
       x="389.76379"
       y="1016.9278"
       id="text5798"
       sodipodi:linespacing="125%"><tspan
         sodipodi:role="line"
         id="tspan5800"
         x="389.76379"
         y="1016.9278">Tox</tspan></text>
    <rect
       ry="17.716537"
       rx="17.716536"
       y="414.56558"
       x="177.16536"
       height="566.92914"
       width="70.866142"
       id="rect5814"
       style="fill:url(#linearGradient5816);fill-opacity:1;stroke:none" />
    <rect
       style="fill:url(#linearGradient5820);fill-opacity:1;stroke:none"
       id="rect5818"
       width="70.866142"
       height="566.92914"
       x="283.46457"
       y="414.56558"
       rx="17.716536"
       ry="17.716537" />
    <rect
       ry="17.716537"
       rx="17.716536"
       y="414.56558"
       x="389.76379"
       height="566.92914"
       width="70.866142"
       id="rect5822"
       style="fill:url(#linearGradient5824);fill-opacity:1;stroke:none" />
    <path
       style="fill:none;stroke:#000000;stroke-width:3.54330707000000000;stroke-linecap:round;stroke-linejoin:round;stroke-miterlimit:4;stroke-opacity:1;stroke-dasharray:none;marker-start:none;marker-mid:none"
       d="m 53.149606,35.43303 -35.433071,0 17.716536,35.433071 0,566.929139 425.196849,0 35.43307,17.71653 0,-35.43307"
       id="path3958"
       inkscape:connector-curvature="0"
       transform="translate(0,343.69947)"
       sodipodi:nodetypes="ccccccc" />
    <g
       id="g5965">
      <path
         transform="translate(0,343.69947)"
         id="path5923"
         d="M 779.52081 602.36608 L 779.49738 602.3796 "
         style="fill:none;stroke:#000000;stroke-width:3.54330707000000000;stroke-linecap:butt;stroke-linejoin:miter;stroke-miterlimit:4;stroke-opacity:1;stroke-dasharray:none" />
      <path
         sodipodi:type="arc"
         style="fill:#ffffff;fill-opacity:0.75294119;stroke:#000000;stroke-width:2.78402685999999999;stroke-linecap:round;stroke-linejoin:round;stroke-miterlimit:4;stroke-opacity:1;stroke-dasharray:none"
         id="path3929"
         sodipodi:cx="832.67719"
         sodipodi:cy="230.31493"
         sodipodi:rx="194.8819"
         sodipodi:ry="194.8819"
         d="m 637.79529,230.31492 a 194.8819,194.8819 0 0 1 389.76381,0 l -194.88191,1e-5 z"
         transform="matrix(1.2727274,0,0,1.2727274,-280.24354,652.93352)"
         sodipodi:start="3.1415927"
         sodipodi:end="6.2831853" />
      <path
         id="path5832"
         d="m 539.9375,881.85572 c -5.6102,20.9372 -8.4375,42.54298 -8.4375,64.21875 l 106.28125,0 c -0.0131,-12.69745 1.65442,-25.00414 4.78125,-36.71875 l -102.625,-27.5 z m 479.1563,0 -102.5938,27.5 c 3.07301,11.51755 4.70735,23.6144 4.75,36.09375 5.5e-4,0.16117 0,0.33883 0,0.5 l -141.25,0 -0.46875,0.125 248.03125,0 c 0,-21.67577 -2.8586,-43.28155 -8.4687,-64.21875 z m -239.56255,64.21875 -0.46875,-0.125 -37.34375,0.125 37.8125,0 z"
         style="fill:#ff0000;fill-opacity:1;stroke:none"
         inkscape:connector-curvature="0" />
      <path
         id="path5889"
         d="m 779.52753,698.03012 0,70.87507"
         style="fill:none;stroke:#000000;stroke-width:3.54330707;stroke-linecap:butt;stroke-linejoin:miter;stroke-miterlimit:4;stroke-opacity:1;stroke-dasharray:none"
         inkscape:connector-curvature="0" />
      <path
         id="path5881"
         d="m 715.33226,706.48159 18.38742,68.62282"
         style="fill:none;stroke:#000000;stroke-width:3.54330707;stroke-linecap:butt;stroke-linejoin:miter;stroke-miterlimit:4;stroke-opacity:1;stroke-dasharray:none"
         inkscape:connector-curvature="0" />
      <path
         id="path5875"
         d="M 655.51178,731.26004 691.01763,792.758"
         style="fill:none;stroke:#000000;stroke-width:3.54330707;stroke-linecap:butt;stroke-linejoin:miter;stroke-miterlimit:4;stroke-opacity:1;stroke-dasharray:none"
         inkscape:connector-curvature="0" />
      <path
         id="path5869"
         d="m 604.14278,770.67686 50.12557,50.12557"
         style="fill:none;stroke:#000000;stroke-width:3.54330707;stroke-linecap:butt;stroke-linejoin:miter;stroke-miterlimit:4;stroke-opacity:1;stroke-dasharray:none"
         inkscape:connector-curvature="0" />
      <path
         id="path5850"
         d="m 564.72595,822.04586 61.49464,35.50396"
         style="fill:none;stroke:#000000;stroke-width:3.54330707;stroke-linecap:butt;stroke-linejoin:miter;stroke-miterlimit:4;stroke-opacity:1;stroke-dasharray:none"
         inkscape:connector-curvature="0" />
      <path
         id="path5939"
         d="M 843.72283,706.48161 825.3432,775.07526"
         style="fill:none;stroke:#000000;stroke-width:3.54330707;stroke-linecap:butt;stroke-linejoin:miter;stroke-miterlimit:4;stroke-opacity:1;stroke-dasharray:none"
         inkscape:connector-curvature="0" />
      <path
         id="path5933"
         d="m 903.54331,731.26006 -35.5059,61.49796"
         style="fill:none;stroke:#000000;stroke-width:3.54330707;stroke-linecap:butt;stroke-linejoin:miter;stroke-miterlimit:4;stroke-opacity:1;stroke-dasharray:none"
         inkscape:connector-curvature="0" />
      <path
         id="path5927"
         d="m 954.91231,770.67688 -50.12553,50.12557"
         style="fill:none;stroke:#000000;stroke-width:3.54330707;stroke-linecap:butt;stroke-linejoin:miter;stroke-miterlimit:4;stroke-opacity:1;stroke-dasharray:none"
         inkscape:connector-curvature="0" />
      <path
         id="path5899"
         d="m 994.32914,822.04588 -61.47117,35.49041"
         style="fill:none;stroke:#000000;stroke-width:3.54330707;stroke-linecap:butt;stroke-linejoin:miter;stroke-miterlimit:4;stroke-opacity:1;stroke-dasharray:none"
         inkscape:connector-curvature="0" />
      <path
         sodipodi:end="6.2831853"
         sodipodi:start="3.1415927"
         transform="matrix(1.2727274,0,0,1.2727274,-280.24354,652.93352)"
         d="m 637.79529,230.31492 a 194.8819,194.8819 0 0 1 389.76381,0 l -194.88191,1e-5 z"
         sodipodi:ry="194.8819"
         sodipodi:rx="194.8819"
         sodipodi:cy="230.31493"
         sodipodi:cx="832.67719"
         id="path5834"
         style="fill:none;fill-opacity:0.75111108000000004;stroke:#000000;stroke-width:2.78402685999999999;stroke-linecap:round;stroke-linejoin:round;stroke-miterlimit:4;stroke-opacity:1;stroke-dasharray:none"
         sodipodi:type="arc" />
    </g>
    <path
       sodipodi:nodetypes="ccccc"
       inkscape:connector-curvature="0"
       id="path5828"
       d="m 1435.0394,1087.7939 -17.7166,-17.7165 -212.5984,17.7165 212.5984,17.7165 z"
       style="fill:#6e6e6e;fill-opacity:1;stroke:none"
       inkscape:export-filename="/Users/justin/Projects/BREACH/Assets/Models/Atlases/Textures/Needle.png"
       inkscape:export-xdpi="50.799999"
       inkscape:export-ydpi="50.799999" />
    <g
       id="g5980"
       transform="translate(-3.7019092e-6,-318.89764)">
      <path
         style="fill:none;stroke:#000000;stroke-width:3.54330707;stroke-linecap:butt;stroke-linejoin:miter;stroke-miterlimit:4;stroke-opacity:1;stroke-dasharray:none"
         d="m 779.52081,602.36608 -0.0234,0.0135"
         id="path5982"
         transform="translate(0,343.69947)"
         inkscape:connector-curvature="0" />
      <path
         sodipodi:end="6.2831853"
         sodipodi:start="3.1415927"
         transform="matrix(1.2727274,0,0,1.2727274,-280.24354,652.93352)"
         d="m 637.79529,230.31492 a 194.8819,194.8819 0 0 1 389.76381,0 l -194.88191,1e-5 z"
         sodipodi:ry="194.8819"
         sodipodi:rx="194.8819"
         sodipodi:cy="230.31493"
         sodipodi:cx="832.67719"
         id="path5984"
         style="fill:#ffffff;fill-opacity:0.75294118;stroke:#000000;stroke-width:2.78402686;stroke-linecap:round;stroke-linejoin:round;stroke-miterlimit:4;stroke-opacity:1;stroke-dasharray:none"
         sodipodi:type="arc" />
      <path
         inkscape:connector-curvature="0"
         style="fill:#ff0000;fill-opacity:1;stroke:none"
         d="m 539.9375,881.85572 c -5.6102,20.9372 -8.4375,42.54298 -8.4375,64.21875 l 106.28125,0 c -0.0131,-12.69745 1.65442,-25.00414 4.78125,-36.71875 l -102.625,-27.5 z m 479.1563,0 -102.5938,27.5 c 3.07301,11.51755 4.70735,23.6144 4.75,36.09375 5.5e-4,0.16117 0,0.33883 0,0.5 l -141.25,0 -0.46875,0.125 248.03125,0 c 0,-21.67577 -2.8586,-43.28155 -8.4687,-64.21875 z m -239.56255,64.21875 -0.46875,-0.125 -37.34375,0.125 37.8125,0 z"
         id="path5986" />
      <path
         inkscape:connector-curvature="0"
         style="fill:none;stroke:#000000;stroke-width:3.54330707;stroke-linecap:butt;stroke-linejoin:miter;stroke-miterlimit:4;stroke-opacity:1;stroke-dasharray:none"
         d="m 779.52753,698.03012 0,70.87507"
         id="path5988" />
      <path
         inkscape:connector-curvature="0"
         style="fill:none;stroke:#000000;stroke-width:3.54330707;stroke-linecap:butt;stroke-linejoin:miter;stroke-miterlimit:4;stroke-opacity:1;stroke-dasharray:none"
         d="m 715.33226,706.48159 18.38742,68.62282"
         id="path5990" />
      <path
         inkscape:connector-curvature="0"
         style="fill:none;stroke:#000000;stroke-width:3.54330707;stroke-linecap:butt;stroke-linejoin:miter;stroke-miterlimit:4;stroke-opacity:1;stroke-dasharray:none"
         d="M 655.51178,731.26004 691.01763,792.758"
         id="path5992" />
      <path
         inkscape:connector-curvature="0"
         style="fill:none;stroke:#000000;stroke-width:3.54330707;stroke-linecap:butt;stroke-linejoin:miter;stroke-miterlimit:4;stroke-opacity:1;stroke-dasharray:none"
         d="m 604.14278,770.67686 50.12557,50.12557"
         id="path5994" />
      <path
         inkscape:connector-curvature="0"
         style="fill:none;stroke:#000000;stroke-width:3.54330707;stroke-linecap:butt;stroke-linejoin:miter;stroke-miterlimit:4;stroke-opacity:1;stroke-dasharray:none"
         d="m 564.72595,822.04586 61.49464,35.50396"
         id="path5996" />
      <path
         inkscape:connector-curvature="0"
         style="fill:none;stroke:#000000;stroke-width:3.54330707;stroke-linecap:butt;stroke-linejoin:miter;stroke-miterlimit:4;stroke-opacity:1;stroke-dasharray:none"
         d="M 843.72283,706.48161 825.3432,775.07526"
         id="path5998" />
      <path
         inkscape:connector-curvature="0"
         style="fill:none;stroke:#000000;stroke-width:3.54330707;stroke-linecap:butt;stroke-linejoin:miter;stroke-miterlimit:4;stroke-opacity:1;stroke-dasharray:none"
         d="m 903.54331,731.26006 -35.5059,61.49796"
         id="path6000" />
      <path
         inkscape:connector-curvature="0"
         style="fill:none;stroke:#000000;stroke-width:3.54330707;stroke-linecap:butt;stroke-linejoin:miter;stroke-miterlimit:4;stroke-opacity:1;stroke-dasharray:none"
         d="m 954.91231,770.67688 -50.12553,50.12557"
         id="path6002" />
      <path
         inkscape:connector-curvature="0"
         style="fill:none;stroke:#000000;stroke-width:3.54330707;stroke-linecap:butt;stroke-linejoin:miter;stroke-miterlimit:4;stroke-opacity:1;stroke-dasharray:none"
         d="m 994.32914,822.04588 -61.47117,35.49041"
         id="path6004" />
      <path
         sodipodi:type="arc"
         style="fill:none;stroke:#000000;stroke-width:2.78402686;stroke-linecap:round;stroke-linejoin:round;stroke-miterlimit:4;stroke-opacity:1;stroke-dasharray:none"
         id="path6006"
         sodipodi:cx="832.67719"
         sodipodi:cy="230.31493"
         sodipodi:rx="194.8819"
         sodipodi:ry="194.8819"
         d="m 637.79529,230.31492 a 194.8819,194.8819 0 0 1 389.76381,0 l -194.88191,1e-5 z"
         transform="matrix(1.2727274,0,0,1.2727274,-280.24354,652.93352)"
         sodipodi:start="3.1415927"
         sodipodi:end="6.2831853" />
    </g>
    <path
       style="fill:#6e6e6e;fill-opacity:1;stroke:none;stroke-width:3.54330707000000000;stroke-linecap:butt;stroke-linejoin:miter;stroke-miterlimit:4;stroke-opacity:1;stroke-dasharray:none"
       d="M 797.24409,627.164 779.52756,609.44746 566.92913,627.164 779.52756,644.88053 z"
       id="path5826"
       inkscape:connector-curvature="0"
       sodipodi:nodetypes="ccccc" />
    <rect
       rx="31.889799"
       ry="31.889765"
       y="949.60492"
       x="1066.5354"
       height="99.212624"
       width="99.212563"
       id="rect6008"
       style="fill:#2cff00;fill-opacity:0.50196078;stroke:#00dc00;stroke-width:3.54330707;stroke-linecap:round;stroke-linejoin:round;stroke-miterlimit:4;stroke-opacity:1;stroke-dasharray:none" />
    <g
       id="g6010"
       transform="translate(673.22841,106.29922)">
      <path
         style="fill:none;stroke:#000000;stroke-width:3.54330707;stroke-linecap:butt;stroke-linejoin:miter;stroke-miterlimit:4;stroke-opacity:1;stroke-dasharray:none"
         d="m 779.52081,602.36608 -0.0234,0.0135"
         id="path6012"
         transform="translate(0,343.69947)"
         inkscape:connector-curvature="0" />
      <path
         sodipodi:end="6.2831853"
         sodipodi:start="3.1415927"
         transform="matrix(1.2727274,0,0,1.2727274,-280.24354,652.93352)"
         d="m 637.79529,230.31492 c 0,-107.6303 87.2516,-194.881896 194.8819,-194.881891 107.6303,5e-6 194.88191,87.251601 194.88191,194.881891 l -194.88191,1e-5 z"
         sodipodi:ry="194.8819"
         sodipodi:rx="194.8819"
         sodipodi:cy="230.31493"
         sodipodi:cx="832.67719"
         id="path6014"
         style="fill:#ffffff;fill-opacity:0.75294118;stroke:#000000;stroke-width:2.78402686;stroke-linecap:round;stroke-linejoin:round;stroke-miterlimit:4;stroke-opacity:1;stroke-dasharray:none"
         sodipodi:type="arc" />
      <path
         inkscape:connector-curvature="0"
         style="fill:#ff0000;fill-opacity:1;stroke:none"
         d="m 539.9375,881.85572 c -5.6102,20.9372 -8.4375,42.54298 -8.4375,64.21875 l 106.28125,0 c -0.0131,-12.69745 1.65442,-25.00414 4.78125,-36.71875 l -102.625,-27.5 z m 479.1563,0 -102.5938,27.5 c 3.07301,11.51755 4.70735,23.6144 4.75,36.09375 5.5e-4,0.16117 0,0.33883 0,0.5 l -141.25,0 -0.46875,0.125 248.03125,0 c 0,-21.67577 -2.8586,-43.28155 -8.4687,-64.21875 z m -239.56255,64.21875 -0.46875,-0.125 -37.34375,0.125 37.8125,0 z"
         id="path6016" />
      <path
         inkscape:connector-curvature="0"
         style="fill:none;stroke:#000000;stroke-width:3.54330707;stroke-linecap:butt;stroke-linejoin:miter;stroke-miterlimit:4;stroke-opacity:1;stroke-dasharray:none"
         d="m 779.52753,698.03012 0,70.87507"
         id="path6018" />
      <path
         inkscape:connector-curvature="0"
         style="fill:none;stroke:#000000;stroke-width:3.54330707;stroke-linecap:butt;stroke-linejoin:miter;stroke-miterlimit:4;stroke-opacity:1;stroke-dasharray:none"
         d="m 715.33226,706.48159 18.38742,68.62282"
         id="path6020" />
      <path
         inkscape:connector-curvature="0"
         style="fill:none;stroke:#000000;stroke-width:3.54330707;stroke-linecap:butt;stroke-linejoin:miter;stroke-miterlimit:4;stroke-opacity:1;stroke-dasharray:none"
         d="M 655.51178,731.26004 691.01763,792.758"
         id="path6022" />
      <path
         inkscape:connector-curvature="0"
         style="fill:none;stroke:#000000;stroke-width:3.54330707;stroke-linecap:butt;stroke-linejoin:miter;stroke-miterlimit:4;stroke-opacity:1;stroke-dasharray:none"
         d="m 604.14278,770.67686 50.12557,50.12557"
         id="path6024" />
      <path
         inkscape:connector-curvature="0"
         style="fill:none;stroke:#000000;stroke-width:3.54330707;stroke-linecap:butt;stroke-linejoin:miter;stroke-miterlimit:4;stroke-opacity:1;stroke-dasharray:none"
         d="m 564.72595,822.04586 61.49464,35.50396"
         id="path6026" />
      <path
         inkscape:connector-curvature="0"
         style="fill:none;stroke:#000000;stroke-width:3.54330707;stroke-linecap:butt;stroke-linejoin:miter;stroke-miterlimit:4;stroke-opacity:1;stroke-dasharray:none"
         d="M 843.72283,706.48161 825.3432,775.07526"
         id="path6028" />
      <path
         inkscape:connector-curvature="0"
         style="fill:none;stroke:#000000;stroke-width:3.54330707;stroke-linecap:butt;stroke-linejoin:miter;stroke-miterlimit:4;stroke-opacity:1;stroke-dasharray:none"
         d="m 903.54331,731.26006 -35.5059,61.49796"
         id="path6030" />
      <path
         inkscape:connector-curvature="0"
         style="fill:none;stroke:#000000;stroke-width:3.54330707;stroke-linecap:butt;stroke-linejoin:miter;stroke-miterlimit:4;stroke-opacity:1;stroke-dasharray:none"
         d="m 954.91231,770.67688 -50.12553,50.12557"
         id="path6032" />
      <path
         inkscape:connector-curvature="0"
         style="fill:none;stroke:#000000;stroke-width:3.54330707;stroke-linecap:butt;stroke-linejoin:miter;stroke-miterlimit:4;stroke-opacity:1;stroke-dasharray:none"
         d="m 994.32914,822.04588 -61.47117,35.49041"
         id="path6034" />
      <path
         sodipodi:type="arc"
         style="fill:none;stroke:#000000;stroke-width:2.78402686;stroke-linecap:round;stroke-linejoin:round;stroke-miterlimit:4;stroke-opacity:1;stroke-dasharray:none"
         id="path6036"
         sodipodi:cx="832.67719"
         sodipodi:cy="230.31493"
         sodipodi:rx="194.8819"
         sodipodi:ry="194.8819"
         d="m 637.79529,230.31492 c 0,-107.6303 87.2516,-194.881896 194.8819,-194.881891 107.6303,5e-6 194.88191,87.251601 194.88191,194.881891 l -194.88191,1e-5 z"
         transform="matrix(1.2727274,0,0,1.2727274,-280.24354,652.93352)"
         sodipodi:start="3.1415927"
         sodipodi:end="6.2831853" />
    </g>
    <path
       inkscape:export-ydpi="50.799999"
       inkscape:export-xdpi="50.799999"
       inkscape:export-filename="/Users/justin/Projects/BREACH/Assets/Models/Atlases/Textures/Needle.png"
       style="fill:#6e6e6e;fill-opacity:1;stroke:none"
       d="m 797.24413,946.06163 -17.7166,-17.7165 -212.5984,17.7165 212.5984,17.7165 z"
       id="path6038"
       inkscape:connector-curvature="0"
       sodipodi:nodetypes="ccccc" />
    <path
       sodipodi:nodetypes="ccccccc"
       inkscape:connector-curvature="0"
       id="path6040"
       d="m 1116.1417,768.89619 -35.433,0 17.7165,35.4331 0,70.8662 70.8661,0 35.4331,17.7165 0,-35.4331"
       style="fill:none;stroke:#000000;stroke-width:3.54330709;stroke-linecap:round;stroke-linejoin:round;stroke-miterlimit:4;stroke-opacity:1;stroke-dasharray:none;marker-start:none;marker-mid:none" />
    <rect
       style="fill:url(#linearGradient6440);fill-opacity:1;stroke:none"
       id="rect6438"
       width="70.866142"
       height="70.866158"
       x="1240.1575"
       y="698.03015"
       rx="0"
       ry="0" />
    <path
       style="fill:none;stroke:#000000;stroke-width:3.54330709;stroke-linecap:butt;stroke-linejoin:miter;stroke-opacity:1;stroke-miterlimit:4;stroke-dasharray:none"
       d="m 1240.1575,354.33067 0,70.86614"
       id="path6442"
       inkscape:connector-curvature="0"
       transform="translate(0,343.69947)" />
    <path
       style="fill:none;stroke:#000000;stroke-width:3.54330709;stroke-linecap:butt;stroke-linejoin:miter;stroke-opacity:1;stroke-miterlimit:4;stroke-dasharray:none"
       d="m 1311.0236,354.33067 0,70.86614"
       id="path6444"
       inkscape:connector-curvature="0"
       transform="translate(0,343.69947)" />
    <path
       style="fill:none;stroke:#000000;stroke-width:3.54330709;stroke-linecap:butt;stroke-linejoin:miter;stroke-opacity:1;stroke-miterlimit:4;stroke-dasharray:none"
       d="m 70.866142,637.79524 0,-566.929139"
       id="path6446"
       inkscape:connector-curvature="0"
       transform="translate(0,343.69947)" />
    <path
       style="fill:none;stroke:#000000;stroke-width:3.54330709;stroke-linecap:butt;stroke-linejoin:miter;stroke-opacity:1;stroke-miterlimit:4;stroke-dasharray:none"
       d="m 141.73228,637.79524 0,-566.929139"
       id="path6448"
       inkscape:connector-curvature="0"
       transform="translate(0,343.69947)" />
    <path
       inkscape:connector-curvature="0"
       id="path6450"
       d="m 177.16536,981.49471 0,-566.92914"
       style="fill:none;stroke:#000000;stroke-width:3.54330707;stroke-linecap:butt;stroke-linejoin:miter;stroke-miterlimit:4;stroke-opacity:1;stroke-dasharray:none" />
    <path
       inkscape:connector-curvature="0"
       id="path6452"
       d="m 248.0315,981.49471 0,-566.92914"
       style="fill:none;stroke:#000000;stroke-width:3.54330707;stroke-linecap:butt;stroke-linejoin:miter;stroke-miterlimit:4;stroke-opacity:1;stroke-dasharray:none" />
    <path
       style="fill:none;stroke:#000000;stroke-width:3.54330707;stroke-linecap:butt;stroke-linejoin:miter;stroke-miterlimit:4;stroke-opacity:1;stroke-dasharray:none"
       d="m 283.46457,981.49471 0,-566.92914"
       id="path6454"
       inkscape:connector-curvature="0" />
    <path
       style="fill:none;stroke:#000000;stroke-width:3.54330707;stroke-linecap:butt;stroke-linejoin:miter;stroke-miterlimit:4;stroke-opacity:1;stroke-dasharray:none"
       d="m 354.33071,981.49471 0,-566.92914"
       id="path6456"
       inkscape:connector-curvature="0" />
    <path
       inkscape:connector-curvature="0"
       id="path6458"
       d="m 389.76378,981.49471 0,-566.92914"
       style="fill:none;stroke:#000000;stroke-width:3.54330707;stroke-linecap:butt;stroke-linejoin:miter;stroke-miterlimit:4;stroke-opacity:1;stroke-dasharray:none" />
    <path
       inkscape:connector-curvature="0"
       id="path6460"
       d="m 460.62992,981.49471 0,-566.92914"
       style="fill:none;stroke:#000000;stroke-width:3.54330707;stroke-linecap:butt;stroke-linejoin:miter;stroke-miterlimit:4;stroke-opacity:1;stroke-dasharray:none" />
    <rect
       style="fill:#ffffff;fill-opacity:0.75294117999999999;stroke:#000000;stroke-width:7.08661417;stroke-linecap:round;stroke-linejoin:round;stroke-miterlimit:4;stroke-opacity:1;stroke-dasharray:none"
       id="rect6475"
       width="99.212563"
       height="99.212624"
       x="1066.5354"
       y="1055.9042"
       ry="31.889765"
       rx="31.889799"
       inkscape:export-filename="/Users/justin/Projects/BREACH/Assets/Models/Atlases/Textures/Background White.png"
       inkscape:export-xdpi="50.800003"
       inkscape:export-ydpi="50.800003" />
    <rect
       style="fill:#2cff00;fill-opacity:0.50196078;stroke:#00dc00;stroke-width:3.54330659;stroke-linecap:round;stroke-linejoin:round;stroke-miterlimit:4;stroke-opacity:1;stroke-dasharray:none"
       id="rect6496"
       width="630.70868"
       height="1162.205"
       x="357.87402"
       y="1091.3372"
       ry="31.889763"
       rx="31.889801" />
    <rect
       rx="31.889801"
       ry="31.889759"
       y="1126.7703"
       x="393.3071"
       height="205.51187"
       width="559.84247"
       id="rect6498"
       style="fill:#ffffff;fill-opacity:0.75294117999999999;stroke:#000000;stroke-width:7.08661417;stroke-linecap:round;stroke-linejoin:round;stroke-miterlimit:4;stroke-opacity:1;stroke-dasharray:none" />
    <g
       id="g6516"
       transform="translate(1.6535434e-6,1.2838339e-6)">
      <path
         transform="translate(0,343.69947)"
         inkscape:connector-curvature="0"
         id="path6504"
         d="m 850.3937,885.82673 -53.14961,-53.14961 17.71654,-17.71653 70.86614,70.86614 -70.86614,70.86614 -17.71654,-17.71653 z"
         style="fill:#ffffff;fill-opacity:0.75294118;stroke:#000000;stroke-width:3.54330707;stroke-linecap:round;stroke-linejoin:round;stroke-miterlimit:4;stroke-opacity:1;stroke-dasharray:none" />
      <path
         transform="translate(0,343.69947)"
         inkscape:connector-curvature="0"
         id="path6506"
         d="m 814.96063,875.19681 0,21.25984 -124.01575,0 0,-21.25984 z"
         style="fill:#ffffff;fill-opacity:0.75294118;stroke:#000000;stroke-width:3.54330707;stroke-linecap:round;stroke-linejoin:round;stroke-miterlimit:4;stroke-opacity:1;stroke-dasharray:none"
         sodipodi:nodetypes="ccccc" />
    </g>
    <g
       id="g6512"
       transform="translate(1.2598424e-6,1.2838336e-6)">
      <path
         style="fill:#ffffff;fill-opacity:0.75294118;stroke:#000000;stroke-width:3.54330707;stroke-linecap:round;stroke-linejoin:round;stroke-miterlimit:4;stroke-opacity:1;stroke-dasharray:none"
         d="m 496.06299,1229.5262 53.14961,-53.1496 -17.71654,-17.7165 -70.86614,70.8661 70.86614,70.8661 17.71654,-17.7165 z"
         id="path6508"
         inkscape:connector-curvature="0" />
      <path
         style="fill:#ffffff;fill-opacity:0.75294118;stroke:#000000;stroke-width:3.54330707;stroke-linecap:round;stroke-linejoin:round;stroke-miterlimit:4;stroke-opacity:1;stroke-dasharray:none"
         d="m 531.49606,1218.8963 0,21.2598 124.01575,0 0,-21.2598 z"
         id="path6510"
         inkscape:connector-curvature="0"
         sodipodi:nodetypes="ccccc" />
    </g>
    <rect
       style="fill:#ffffff;fill-opacity:0.75294117999999999;stroke:#000000;stroke-width:7.08661417;stroke-linecap:round;stroke-linejoin:round;stroke-miterlimit:4;stroke-opacity:1;stroke-dasharray:none"
       id="rect6520"
       width="276.37793"
       height="276.37799"
       x="676.77167"
       y="1374.8018"
       ry="31.889765"
       rx="31.889803" />
    <rect
       rx="31.889799"
       ry="31.889765"
       y="1374.8018"
       x="393.3071"
       height="276.37799"
       width="276.37793"
       id="rect6522"
       style="fill:#ffffff;fill-opacity:0.75294117999999999;stroke:#000000;stroke-width:7.08661417;stroke-linecap:round;stroke-linejoin:round;stroke-miterlimit:4;stroke-opacity:1;stroke-dasharray:none" />
    <rect
       style="fill:#fffa91;fill-opacity:0.75294119;stroke:#000000;stroke-width:3.54330707000000000;stroke-linecap:round;stroke-linejoin:round;stroke-miterlimit:4;stroke-opacity:1;stroke-dasharray:none"
       id="rect6524"
       width="162.9921"
       height="106.29921"
       x="450"
       y="1512.9907"
       rx="17.716536"
       ry="17.716581" />
    <path
       style="fill:#dcdcdc;fill-opacity:0.75294119;stroke:#000000;stroke-width:3.54330707000000000;stroke-linecap:round;stroke-linejoin:round;stroke-miterlimit:4;stroke-opacity:1;stroke-dasharray:none"
       d="m 531.50492,1406.7139 c -39.13829,0 -70.875,31.7052 -70.875,70.8438 l 0,35.4374 35.4375,0 0,-35.4374 c 0,-19.5695 15.86836,-35.4063 35.4375,-35.4063 19.56914,0 35.4375,15.8369 35.4375,35.4063 l 0,35.4374 35.4375,0 0,-35.4374 c 0,-39.1386 -31.73671,-70.8438 -70.875,-70.8438 z"
       id="path6526"
       inkscape:connector-curvature="0" />
    <path
       sodipodi:type="arc"
       style="fill:#f9b9ff;fill-opacity:0.75294119;stroke:#000000;stroke-width:3.54330707000000000;stroke-linecap:round;stroke-linejoin:round;stroke-miterlimit:4;stroke-opacity:1;stroke-dasharray:none"
       id="path6540"
       sodipodi:cx="814.96063"
       sodipodi:cy="1169.2913"
       sodipodi:rx="35.433071"
       sodipodi:ry="35.433071"
       d="m 850.3937,1169.2913 a 35.433071,35.433071 0 1 1 -70.86614,0 35.433071,35.433071 0 1 1 70.86614,0 z"
       transform="translate(0,343.69947)" />
    <path
       style="fill:#6cdbfc;fill-opacity:0.75294119;stroke:#000000;stroke-width:3.54330707000000000;stroke-linecap:round;stroke-linejoin:round;stroke-miterlimit:4;stroke-opacity:1;stroke-dasharray:none"
       d="M 814.96875 1063 C 773.3474 1063 737.29688 1086.9114 719.84375 1121.75 L 751.5625 1137.625 C 763.19308 1114.3884 787.21097 1098.4375 814.96875 1098.4375 C 842.71318 1098.4375 866.71599 1114.3754 878.34375 1137.5938 L 910.0625 1121.75 C 892.61765 1086.9139 856.58828 1063 814.96875 1063 z M 751.59375 1200.9688 L 719.875 1216.8438 C 737.33223 1251.6797 773.35606 1275.5938 814.96875 1275.5938 C 856.57962 1275.5938 892.5823 1251.6772 910.03125 1216.8438 L 878.3125 1201 C 866.67768 1224.2072 842.69825 1240.1562 814.96875 1240.1562 C 787.22592 1240.1562 763.23142 1224.1941 751.59375 1200.9688 z "
       transform="translate(0,343.69947)"
       id="path6542" />
    <g
       transform="translate(531.49606,-35.43307)"
       id="g6550">
      <path
         style="fill:#ffffff;fill-opacity:0.75294118;stroke:#000000;stroke-width:3.54330707;stroke-linecap:round;stroke-linejoin:round;stroke-miterlimit:4;stroke-opacity:1;stroke-dasharray:none"
         d="m 850.3937,885.82673 -53.14961,-53.14961 17.71654,-17.71653 70.86614,70.86614 -70.86614,70.86614 -17.71654,-17.71653 z"
         id="path6552"
         inkscape:connector-curvature="0"
         transform="translate(0,343.69947)" />
      <path
         sodipodi:nodetypes="ccccc"
         style="fill:#ffffff;fill-opacity:0.75294118;stroke:#000000;stroke-width:3.54330707;stroke-linecap:round;stroke-linejoin:round;stroke-miterlimit:4;stroke-opacity:1;stroke-dasharray:none"
         d="m 814.96063,875.19681 0,21.25984 -124.01575,0 0,-21.25984 z"
         id="path6554"
         inkscape:connector-curvature="0"
         transform="translate(0,343.69947)" />
    </g>
    <rect
       ry="17.716581"
       rx="17.716536"
       y="1229.5038"
       x="1442.1172"
       height="106.29921"
       width="162.9921"
       id="rect6556"
       style="fill:#fffa91;fill-opacity:0.75294118;stroke:#000000;stroke-width:3.54330707;stroke-linecap:round;stroke-linejoin:round;stroke-miterlimit:4;stroke-opacity:1;stroke-dasharray:none" />
    <path
       inkscape:connector-curvature="0"
       id="path6558"
       d="m 1523.622,1087.7895 c -39.1382,0 -70.875,31.7052 -70.875,70.8438 l 0,35.4374 35.4375,0 0,-35.4374 c 0,-19.5695 15.8684,-35.4063 35.4375,-35.4063 19.5692,0 35.4375,15.8369 35.4375,35.4063 l 0,35.4374 35.4375,0 0,-35.4374 c 0,-39.1386 -31.7367,-70.8438 -70.875,-70.8438 z"
       style="fill:#dcdcdc;fill-opacity:0.75294118;stroke:#000000;stroke-width:3.54330707;stroke-linecap:round;stroke-linejoin:round;stroke-miterlimit:4;stroke-opacity:1;stroke-dasharray:none" />
    <g
       id="g6564">
      <path
         sodipodi:type="arc"
         style="fill:#f9b9ff;fill-opacity:0.75294118;stroke:#000000;stroke-width:3.54330707;stroke-linecap:round;stroke-linejoin:round;stroke-miterlimit:4;stroke-opacity:1;stroke-dasharray:none"
         id="path6560"
         sodipodi:cx="814.96063"
         sodipodi:cy="1169.2913"
         sodipodi:rx="35.433071"
         sodipodi:ry="35.433071"
         d="m 850.3937,1169.2913 a 35.433071,35.433071 0 1 1 -70.86614,0 35.433071,35.433071 0 1 1 70.86614,0 z"
         transform="translate(496.06299,237.4003)" />
      <path
         inkscape:connector-curvature="0"
         style="fill:#6cdbfc;fill-opacity:0.75294118;stroke:#000000;stroke-width:3.54330707;stroke-linecap:round;stroke-linejoin:round;stroke-miterlimit:4;stroke-opacity:1;stroke-dasharray:none"
         d="m 1311.0318,1300.4003 c -41.6214,0 -77.6719,23.9114 -95.125,58.75 l 31.7187,15.875 c 11.6306,-23.2366 35.6485,-39.1875 63.4063,-39.1875 27.7444,0 51.7472,15.9379 63.375,39.1563 l 31.7187,-15.8438 c -17.4448,-34.8361 -53.4742,-58.75 -95.0937,-58.75 z m -63.375,137.9688 -31.7188,15.875 c 17.4572,34.8359 53.4811,58.75 95.0938,58.75 41.6108,0 77.6135,-23.9166 95.0625,-58.75 l -31.7188,-15.8438 c -11.6348,23.2072 -35.6142,39.1562 -63.3437,39.1562 -27.7429,0 -51.7374,-15.9621 -63.375,-39.1874 z"
         id="path6562" />
    </g>
  </g>
</svg>
